HIERARCHY
ROOT joint_Root
{
	OFFSET 0.0 0.0 0.0
	CHANNELS 6 Xposition Yposition Zposition Zrotation Xrotation Yrotation 
	JOINT Hips
	{
		OFFSET -17.1583 93.1646 452.98
		CHANNELS 6 Xposition Yposition Zposition Zrotation Xrotation Yrotation 
		JOINT Spine
		{
			OFFSET 15.7357 0.0 0.0
			CHANNELS 6 Xposition Yposition Zposition Zrotation Xrotation Yrotation 
			JOINT Chest
			{
				OFFSET 8.98455 -0.406207 0.0
				CHANNELS 6 Xposition Yposition Zposition Zrotation Xrotation Yrotation 
				JOINT Neck
				{
					OFFSET 16.3773 0.0 0.0
					CHANNELS 6 Xposition Yposition Zposition Zrotation Xrotation Yrotation 
					JOINT Head
					{
						OFFSET 6.45672 0.0 0.0
						CHANNELS 6 Xposition Yposition Zposition Zrotation Xrotation Yrotation 
						End Site
						{
							OFFSET 0.0 0.0 0.0
						}
					}
				}
				JOINT Shoulder_L
				{
					OFFSET 12.9942 -0.242716 4.98039
					CHANNELS 6 Xposition Yposition Zposition Zrotation Xrotation Yrotation 
					JOINT UpperArm_L
					{
						OFFSET 5.34809 0.0 0.0
						CHANNELS 6 Xposition Yposition Zposition Zrotation Xrotation Yrotation 
						JOINT LowerArm_L
						{
							OFFSET 24.3286 1.87007e-05 0.0
							CHANNELS 6 Xposition Yposition Zposition Zrotation Xrotation Yrotation 
							JOINT Hand_L
							{
								OFFSET 22.2916 0.0 0.0
								CHANNELS 6 Xposition Yposition Zposition Zrotation Xrotation Yrotation 
								End Site
								{
									OFFSET 0.0 0.0 0.0
								}
							}
						}
					}
				}
				JOINT Shoulder_R
				{
					OFFSET 12.9945 -0.242716 -4.98039
					CHANNELS 6 Xposition Yposition Zposition Zrotation Xrotation Yrotation 
					JOINT UpperArm_R
					{
						OFFSET -5.34813 0.0 0.0
						CHANNELS 6 Xposition Yposition Zposition Zrotation Xrotation Yrotation 
						JOINT LowerArm_R
						{
							OFFSET -24.3289 0.000322201 0.0
							CHANNELS 6 Xposition Yposition Zposition Zrotation Xrotation Yrotation 
							JOINT Hand_R
							{
								OFFSET -22.2915 -0.000108084 0.0
								CHANNELS 6 Xposition Yposition Zposition Zrotation Xrotation Yrotation 
								End Site
								{
									OFFSET 0.0 0.0 0.0
								}
							}
						}
					}
				}
			}
		}
		JOINT UpperLeg_L
		{
			OFFSET -2.19248 -6.46944 0.0
			CHANNELS 6 Xposition Yposition Zposition Zrotation Xrotation Yrotation 
			JOINT LowerLeg_L
			{
				OFFSET 39.0811 0.0 -1.23785e-05
				CHANNELS 6 Xposition Yposition Zposition Zrotation Xrotation Yrotation 
				JOINT Foot_L
				{
					OFFSET 40.9854 0.0 -1.26872e-05
					CHANNELS 6 Xposition Yposition Zposition Zrotation Xrotation Yrotation 
					JOINT Toes_L
					{
						OFFSET 11.7543 0.0 0.0
						CHANNELS 6 Xposition Yposition Zposition Zrotation Xrotation Yrotation 
						End Site
						{
							OFFSET 0.0 0.0 0.0
						}
					}
				}
			}
		}
		JOINT UpperLeg_R
		{
			OFFSET -2.19251 6.46944 0.0
			CHANNELS 6 Xposition Yposition Zposition Zrotation Xrotation Yrotation 
			JOINT LowerLeg_R
			{
				OFFSET -39.0811 -0.00228153 -0.0401928
				CHANNELS 6 Xposition Yposition Zposition Zrotation Xrotation Yrotation 
				JOINT Foot_R
				{
					OFFSET -40.9854 0.0 0.0
					CHANNELS 6 Xposition Yposition Zposition Zrotation Xrotation Yrotation 
					JOINT Toes_R
					{
						OFFSET -11.7543 0.0 0.0
						CHANNELS 6 Xposition Yposition Zposition Zrotation Xrotation Yrotation 
						End Site
						{
							OFFSET 0.0 0.0 0.0
						}
					}
				}
			}
		}
	}
}
MOTION
Frames:	6
Frame Time:	0.0333333
0.000000 0.000000 0.000000 0.000000 0.000000 -0.000000 2.226500 92.462600 2.549290 88.686200 -1.289690 4.861360 15.735700 0.000005 -0.000001 115.051000 86.797700 -114.620000 8.984550 -0.406207 -0.000000 -1.974640 2.674560 0.907887 16.377300 -0.000001 -0.000001 2.998610 1.798540 -1.078150 6.456720 -0.000001 -0.000000 8.335060 1.382910 4.531970 12.994200 -0.242716 4.980390 -92.336400 7.056420 -71.627300 5.348090 -0.000007 -0.000001 -73.702800 17.964500 -0.462590 24.328600 0.000019 0.000005 8.809950 28.194200 -18.161400 22.291600 -0.000001 0.000005 -4.430270 5.048150 6.277690 12.994500 -0.242716 -4.980390 88.427900 5.519110 -74.073400 -5.348130 -0.000001 -0.000004 -73.135000 27.826000 -1.340060 -24.328900 0.000322 -0.000009 1.488740 5.553340 -15.042700 -22.291500 -0.000108 -0.000004 0.755516 5.267320 0.970673 -2.192480 -6.469440 -0.000000 -176.069000 -6.435660 3.533700 39.081100 -0.000007 -0.000012 0.065268 -0.193181 18.668100 40.985400 -0.000006 -0.000013 1.832800 10.496700 -71.267300 11.754300 -0.000000 0.000003 -0.000923 0.181930 -9.196890 -2.192510 6.469440 -0.000001 174.220000 4.462440 -174.322000 -39.081100 -0.002282 -0.040193 0.009064 -0.023077 13.948000 -40.985400 0.000008 0.000006 -7.802760 6.634680 -69.563700 -11.754300 -0.000006 -0.000006 -0.011037 0.278896 -5.240400
0.000000 0.000000 0.000000 0.000000 0.000000 -0.000000 2.235530 92.472800 2.553870 88.716300 -1.258030 4.600820 15.735700 0.000005 -0.000001 115.326000 86.819600 -114.832000 8.984550 -0.406207 -0.000000 -2.028770 2.677940 1.035580 16.377300 -0.000001 -0.000001 2.688130 1.653090 -0.615433 6.456720 -0.000001 -0.000000 8.095830 1.458310 4.653980 12.994200 -0.242716 4.980390 -92.371600 7.142470 -71.577300 5.348090 -0.000007 -0.000001 -72.786700 16.763900 -1.204570 24.328600 0.000019 0.000005 8.674030 28.819900 -17.561200 22.291600 -0.000001 0.000005 -5.439020 5.070260 5.784020 12.994500 -0.242716 -4.980390 88.481100 5.353560 -74.134500 -5.348130 -0.000001 -0.000004 -73.135300 27.684500 -1.446850 -24.328900 0.000322 -0.000009 1.460140 5.406160 -15.149300 -22.291500 -0.000108 -0.000004 0.791843 5.268270 0.944937 -2.192480 -6.469440 -0.000000 -176.115000 -6.540310 3.311390 39.081100 -0.000007 -0.000012 0.065589 -0.195061 18.585400 40.985400 -0.000006 -0.000013 1.843220 10.585900 -71.275700 11.754300 -0.000000 0.000003 -0.000914 0.181809 -9.201810 -2.192510 6.469440 -0.000001 174.198000 4.397930 -174.557000 -39.081100 -0.002282 -0.040193 0.008142 -0.019433 13.902300 -40.985400 0.000008 0.000006 -8.126260 6.627560 -69.474100 -11.754300 -0.000006 -0.000006 -0.010522 0.275164 -5.393130
0.000000 0.000000 0.000000 0.000000 0.000000 -0.000000 2.214340 92.493600 2.558290 88.742900 -1.164130 4.345380 15.735700 0.000005 -0.000001 115.876000 86.840400 -115.328000 8.984550 -0.406207 -0.000000 -2.094010 2.709940 1.147180 16.377300 -0.000001 -0.000001 2.338730 1.447940 -0.071315 6.456720 -0.000001 -0.000000 7.820420 1.365640 5.058160 12.994200 -0.242716 4.980390 -92.383900 7.107400 -71.404000 5.348090 -0.000007 -0.000001 -71.394700 15.326600 -2.448280 24.328600 0.000019 0.000005 8.463850 30.141700 -16.507100 22.291600 -0.000001 0.000005 -7.684580 5.114650 4.767180 12.994500 -0.242716 -4.980390 88.533400 5.186800 -74.188100 -5.348130 -0.000001 -0.000004 -73.239900 27.094800 -1.447520 -24.328900 0.000322 -0.000009 1.500740 5.555520 -15.152800 -22.291500 -0.000108 -0.000004 0.699127 5.270970 0.871908 -2.192480 -6.469440 -0.000000 -176.109000 -6.691430 3.138380 39.081100 -0.000007 -0.000012 0.063270 -0.190095 18.409300 40.985400 -0.000006 -0.000013 1.852530 10.842700 -71.247100 11.754300 -0.000000 0.000003 -0.001007 0.183136 -9.147880 -2.192510 6.469440 -0.000001 174.208000 4.457250 -174.693000 -39.081100 -0.002282 -0.040193 0.007844 -0.018539 13.678500 -40.985400 0.000008 0.000006 -8.050140 6.509550 -69.363400 -11.754300 -0.000006 -0.000006 -0.010512 0.275094 -5.396000
0.000000 0.000000 0.000000 0.000000 0.000000 -0.000000 2.193200 92.523100 2.551000 88.764200 -1.195960 3.948250 15.735700 0.000005 -0.000001 117.805000 86.883500 -117.180000 8.984550 -0.406207 -0.000000 -2.269010 2.851900 1.306390 16.377300 -0.000001 -0.000001 1.929460 1.173580 0.588921 6.456720 -0.000001 -0.000000 7.464160 1.202820 5.573660 12.994200 -0.242716 4.980390 -92.358500 6.954040 -71.212900 5.348090 -0.000007 -0.000001 -69.422600 12.772500 -4.212140 24.328600 0.000019 0.000005 7.935420 32.083400 -14.705000 22.291600 -0.000001 0.000005 -11.436300 5.171460 3.412790 12.994500 -0.242716 -4.980390 88.574500 5.060110 -74.244100 -5.348130 -0.000001 -0.000004 -73.285400 26.530200 -1.209380 -24.328900 0.000322 -0.000009 1.525140 5.542320 -15.422400 -22.291500 -0.000108 -0.000004 0.787171 5.270400 0.887339 -2.192480 -6.469440 -0.000000 -176.122000 -6.950380 2.862250 39.081100 -0.000007 -0.000012 0.062400 -0.190052 18.176700 40.985400 -0.000006 -0.000013 1.843890 11.027200 -71.231000 11.754300 -0.000000 0.000003 -0.001032 0.183487 -9.133630 -2.192510 6.469440 -0.000001 174.230000 4.401860 -175.019000 -39.081100 -0.002282 -0.040193 0.007353 -0.016761 13.487100 -40.985400 0.000008 0.000006 -8.238570 6.513240 -69.261800 -11.754300 -0.000006 -0.000006 -0.010604 0.275765 -5.368530
0.000000 0.000000 0.000000 0.000000 0.000000 -0.000000 2.148410 92.565700 2.545680 88.781300 -1.210830 3.490070 15.735700 0.000005 -0.000001 119.182000 86.962400 -118.431000 8.984550 -0.406207 -0.000000 -2.481770 2.894020 1.565390 16.377300 -0.000001 -0.000001 1.407830 0.917956 1.167500 6.456720 -0.000001 -0.000000 7.078470 1.081550 6.230550 12.994200 -0.242716 4.980390 -92.330500 6.781110 -70.982400 5.348090 -0.000007 -0.000001 -66.578000 9.534460 -6.166840 24.328600 0.000019 0.000005 7.003650 33.403800 -12.579300 22.291600 -0.000001 0.000005 -15.981100 5.209070 2.481120 12.994500 -0.242716 -4.980390 88.600300 4.980730 -74.281400 -5.348130 -0.000001 -0.000004 -73.113500 26.270900 -1.126760 -24.328900 0.000322 -0.000009 1.500380 5.439320 -15.456600 -22.291500 -0.000108 -0.000004 0.787571 5.273710 0.797714 -2.192480 -6.469440 -0.000000 -176.105000 -7.221200 2.580520 39.081100 -0.000007 -0.000012 0.058833 -0.182974 17.824700 40.985400 -0.000006 -0.000013 1.803420 11.267600 -71.151200 11.754300 -0.000000 0.000003 -0.001074 0.184079 -9.109580 -2.192510 6.469440 -0.000001 174.234000 4.389800 -175.355000 -39.081100 -0.002282 -0.040193 0.004842 -0.006436 13.195700 -40.985400 0.000008 0.000006 -8.816070 6.594210 -68.995500 -11.754300 -0.000006 -0.000006 -0.010905 0.277949 -5.279160
0.000000 0.000000 0.000000 0.000000 0.000000 -0.000000 2.083400 92.622700 2.531850 88.787600 -1.348340 2.907010 15.735700 0.000005 -0.000001 120.158000 87.096100 -119.206000 8.984550 -0.406207 -0.000000 -2.768700 2.829180 1.972500 16.377300 -0.000001 -0.000001 0.923708 0.777991 1.753020 6.456720 -0.000001 -0.000000 6.396060 1.085340 6.852940 12.994200 -0.242716 4.980390 -92.239600 6.422620 -70.729700 5.348090 -0.000007 -0.000001 -63.053900 5.433870 -8.074080 24.328600 0.000019 0.000005 6.016070 34.572300 -10.521700 22.291600 -0.000001 0.000005 -19.609600 5.221550 2.169830 12.994500 -0.242716 -4.980390 88.632400 4.874040 -74.306200 -5.348130 -0.000001 -0.000004 -72.806200 25.782100 -1.267700 -24.328900 0.000322 -0.000009 1.559400 5.749590 -15.212300 -22.291500 -0.000108 -0.000004 0.856283 5.273150 0.813077 -2.192480 -6.469440 -0.000000 -176.079000 -7.595200 2.260920 39.081100 -0.000007 -0.000012 0.054488 -0.174716 17.321000 40.985400 -0.000006 -0.000013 1.739580 11.523300 -70.978600 11.754300 -0.000000 0.000003 -0.000972 0.182637 -9.168180 -2.192510 6.469440 -0.000001 174.306000 4.304790 -175.755000 -39.081100 -0.002282 -0.040193 0.003687 -0.001566 12.707300 -40.985400 0.000008 0.000006 -9.032490 6.572080 -68.633300 -11.754300 -0.000006 -0.000006 -0.010737 0.276729 -5.329080
